<?xml version="1.0" encoding="UTF-8" standalone="no"?>
<!-- Created with Inkscape (http://www.inkscape.org/) -->

<svg
   width="512"
   height="512"
   viewBox="0 0 512 512"
   version="1.1"
   id="svg1"
   xml:space="preserve"
   sodipodi:docname="turntable.svg"
   inkscape:version="1.3 (0e150ed6c4, 2023-07-21)"
   xmlns:inkscape="http://www.inkscape.org/namespaces/inkscape"
   xmlns:sodipodi="http://sodipodi.sourceforge.net/DTD/sodipodi-0.dtd"
   xmlns="http://www.w3.org/2000/svg"
   xmlns:svg="http://www.w3.org/2000/svg"><sodipodi:namedview
     id="namedview1"
     pagecolor="#ffffff"
     bordercolor="#000000"
     borderopacity="0.25"
     inkscape:showpageshadow="2"
     inkscape:pageopacity="0.0"
     inkscape:pagecheckerboard="0"
     inkscape:deskcolor="#d1d1d1"
     inkscape:zoom="1.515625"
     inkscape:cx="256"
     inkscape:cy="256"
     inkscape:window-width="1920"
     inkscape:window-height="1008"
     inkscape:window-x="1920"
     inkscape:window-y="505"
     inkscape:window-maximized="1"
     inkscape:current-layer="svg1" /><defs
     id="defs1"><rect
       x="121.77066"
       y="466.21832"
       width="283.39264"
       height="48.444771"
       id="rect94" /><marker
       style="overflow:visible"
       id="marker57-9"
       refX="0"
       refY="0"
       orient="auto-start-reverse"
       markerWidth="2"
       markerHeight="2"
       viewBox="0 0 1 1"
       preserveAspectRatio="xMidYMid"><path
         style="fill:context-stroke;fill-rule:evenodd;stroke:context-stroke;stroke-width:0.5pt"
         d="M 2.885,0 -1.44,2.5 v -5 z"
         id="path57-0" /></marker><marker
       style="overflow:visible"
       id="marker57-99"
       refX="0"
       refY="0"
       orient="auto-start-reverse"
       markerWidth="1"
       markerHeight="1"
       viewBox="0 0 1 1"
       preserveAspectRatio="xMidYMid"><path
         transform="scale(0.5)"
         style="fill:context-stroke;fill-rule:evenodd;stroke:context-stroke;stroke-width:1pt"
         d="M 5.77,0 -2.88,5 V -5 Z"
         id="path57-08" /></marker><marker
       style="overflow:visible"
       id="Triangle-1"
       refX="0"
       refY="0"
       orient="auto-start-reverse"
       markerWidth="1"
       markerHeight="1"
       viewBox="0 0 1 1"
       preserveAspectRatio="xMidYMid"><path
         transform="scale(0.5)"
         style="fill:context-stroke;fill-rule:evenodd;stroke:context-stroke;stroke-width:1pt"
         d="M 5.77,0 -2.88,5 V -5 Z"
         id="path135-3" /></marker><rect
       x="232.29785"
       y="385.54562"
       width="67.492538"
       height="23.820896"
       id="rect84-1" /><rect
       x="232.29785"
       y="385.54562"
       width="67.492538"
       height="23.820896"
       id="rect85-1" /><rect
       x="121.77066"
       y="466.21832"
       width="283.39264"
       height="48.444771"
       id="rect95" /><rect
       x="121.77066"
       y="466.21832"
       width="283.39264"
       height="48.444771"
       id="rect97" /><rect
       x="121.77066"
       y="466.21832"
       width="283.39264"
       height="48.444771"
       id="rect98" /></defs><g
     id="layer6"
     style="display:inline"><g
       id="g4"
       style="fill:#ffffff;fill-opacity:1;stroke:#fefefe;stroke-width:1;stroke-dasharray:none;stroke-opacity:1"><path
         style="fill:#ffffff;fill-opacity:1;stroke:#fefefe;stroke-width:1;stroke-linecap:round;stroke-linejoin:round;stroke-miterlimit:5;stroke-dasharray:none;stroke-opacity:1"
         id="rect1"
         width="199.37999"
         height="198.00684"
         x="5.3100023"
         y="156.99658"
         d="M 1.1523437,152.83789 V 359.16211 H 208.84766 V 152.83789 Z" /><path
         style="fill:#ffffff;fill-opacity:1;stroke:#fefefe;stroke-width:1;stroke-linecap:round;stroke-linejoin:round;stroke-miterlimit:5;stroke-dasharray:none;stroke-opacity:1"
         id="rect2"
         width="199.37999"
         height="198.00684"
         x="307.31"
         y="156.99658"
         d="M 303.15234,152.83789 V 359.16211 H 510.84766 V 152.83789 Z" /><path
         style="fill:#ffffff;fill-opacity:1;stroke:#fefefe;stroke-width:1;stroke-linecap:round;stroke-linejoin:round;stroke-miterlimit:5;stroke-dasharray:none;stroke-opacity:1"
         id="rect3"
         width="99.170036"
         height="198.00969"
         x="206.41498"
         y="156.99515"
         d="M 202.25586,152.83789 V 359.16211 H 309.74414 V 152.83789 Z" /></g><g
       id="g6"
       style="fill:#ffffff;fill-opacity:1;stroke-width:5;stroke-dasharray:none"><rect
         style="fill:#ffffff;fill-opacity:1;stroke:#000000;stroke-width:5;stroke-linecap:round;stroke-linejoin:round;stroke-miterlimit:5;stroke-dasharray:none"
         id="rect4"
         width="199.37999"
         height="198.00684"
         x="5.3100023"
         y="156.99658" /><circle
         style="fill:#000000;fill-opacity:1;stroke:none;stroke-width:5;stroke-linecap:round;stroke-linejoin:round;stroke-miterlimit:5;stroke-dasharray:none;stroke-opacity:1"
         id="path14"
         cx="105"
         cy="256"
         r="93.916092" /><circle
         style="display:inline;fill:#000000;fill-opacity:0.000338326;stroke:#ffffff;stroke-width:1;stroke-linecap:round;stroke-linejoin:round;stroke-miterlimit:5;stroke-dasharray:none;stroke-opacity:1"
         id="circle59"
         cx="105"
         cy="256"
         r="36" /><circle
         style="display:inline;fill:#000000;fill-opacity:0.000338326;stroke:#ffffff;stroke-width:1;stroke-linecap:round;stroke-linejoin:round;stroke-miterlimit:5;stroke-dasharray:none;stroke-opacity:1"
         id="path59"
         cx="105"
         cy="256"
         r="64" /><rect
         style="fill:#ffffff;fill-opacity:1;stroke:#000000;stroke-width:5;stroke-linecap:round;stroke-linejoin:round;stroke-miterlimit:5;stroke-dasharray:none"
         id="rect5"
         width="199.37999"
         height="198.00684"
         x="307.31"
         y="156.99658" /><circle
         style="fill:#000000;fill-opacity:1;stroke:none;stroke-width:5;stroke-linecap:round;stroke-linejoin:round;stroke-miterlimit:5;stroke-dasharray:none;stroke-opacity:1;marker-mid:url(#marker57-9)"
         id="circle14"
         cx="407"
         cy="256"
         r="93.916092" /><circle
         style="display:inline;fill:#000000;fill-opacity:0.000338326;stroke:#ffffff;stroke-width:1;stroke-linecap:round;stroke-linejoin:round;stroke-miterlimit:5;stroke-dasharray:none;stroke-opacity:1"
         id="circle60"
         cx="407"
         cy="256"
         r="36" /><circle
         style="display:inline;fill:#000000;fill-opacity:0.000338326;stroke:#ffffff;stroke-width:1;stroke-linecap:round;stroke-linejoin:round;stroke-miterlimit:5;stroke-dasharray:none;stroke-opacity:1"
         id="circle61"
         cx="407"
         cy="256"
         r="64" /><rect
         style="display:inline;fill:#ffffff;fill-opacity:1;stroke:#000000;stroke-width:5;stroke-linecap:round;stroke-linejoin:round;stroke-miterlimit:5;stroke-dasharray:none"
         id="rect6"
         width="99.170036"
         height="198.00969"
         x="206.41498"
         y="156.99515" /></g><g
       id="g33"
       transform="translate(2.8930805,-3.1767099)"><g
         id="g30"><path
           id="circle21"
           style="fill:#144cde;fill-opacity:1;stroke:none;stroke-width:6.06077;stroke-linecap:round;stroke-linejoin:round;stroke-miterlimit:5;stroke-dasharray:none;stroke-opacity:1"
           d="m 94.605469,225.89844 c -6.24857,0 -11.279297,5.03072 -11.279297,11.27929 0,6.24857 5.030727,11.2793 11.279297,11.2793 h 15.000001 0.002 c 6.24857,0 11.2793,-5.03073 11.2793,-11.2793 0,-6.24857 -5.03073,-11.27929 -11.2793,-11.27929 h -0.002 z" /><path
           id="path15"
           style="display:inline;fill:#be3f37;fill-opacity:1;stroke:none;stroke-width:5;stroke-linecap:round;stroke-linejoin:round;stroke-miterlimit:5;stroke-dasharray:none;stroke-opacity:1"
           d="m 92.107422,197.89648 c -6.24857,0 -11.279297,5.03073 -11.279297,11.2793 0,6.24857 5.030727,11.2793 11.279297,11.2793 h 19.999998 c 6.24857,0 11.2793,-5.03073 11.2793,-11.2793 0,-6.24857 -5.03073,-11.2793 -11.2793,-11.2793 z" /><path
           id="path24"
           style="fill:#0cbbaa;fill-opacity:1;stroke:none;stroke-width:6.06077;stroke-linecap:round;stroke-linejoin:round;stroke-miterlimit:5;stroke-dasharray:none;stroke-opacity:1"
           d="m 94.605469,169.89648 c -6.24857,0 -11.279297,5.03073 -11.279297,11.2793 0,6.24857 5.030727,11.2793 11.279297,11.2793 h 15.000001 0.002 c 6.24857,0 11.2793,-5.03073 11.2793,-11.2793 0,-6.24857 -5.03073,-11.2793 -11.2793,-11.2793 h -0.002 z" /></g><g
         id="g29"><path
           id="path28"
           style="fill:#000000;fill-opacity:1;stroke:none;stroke-width:6.06077;stroke-linecap:round;stroke-linejoin:round;stroke-miterlimit:5;stroke-dasharray:none;stroke-opacity:1"
           d="m 94.605919,229.67671 a 7.5,7.5 0 0 0 -7.5,7.5 7.5,7.5 0 0 0 7.5,7.5 h 15.000001 a 7.5,7.5000005 0 0 0 0.002,0 7.5,7.5000005 0 0 0 7.5,-7.5 7.5,7.5000005 0 0 0 -7.5,-7.5 7.5,7.5000005 0 0 0 -0.002,0 z" /><path
           id="path27"
           style="display:inline;fill:#000000;fill-opacity:1;stroke:none;stroke-width:6.06077;stroke-linecap:round;stroke-linejoin:round;stroke-miterlimit:5;stroke-dasharray:none;stroke-opacity:1"
           d="m 92.106919,201.67671 a 7.5,7.5 0 0 0 -7.5,7.5 7.5,7.5 0 0 0 7.5,7.5 h 20.000001 a 7.5,7.5000005 0 0 0 7.5,-7.5 7.5,7.5000005 0 0 0 -7.5,-7.5 z" /><path
           id="path29"
           style="fill:#000000;fill-opacity:1;stroke:none;stroke-width:6.06077;stroke-linecap:round;stroke-linejoin:round;stroke-miterlimit:5;stroke-dasharray:none;stroke-opacity:1"
           d="m 94.605919,173.67671 a 7.5,7.5 0 0 0 -7.5,7.5 7.5,7.5 0 0 0 7.5,7.5 h 15.000001 a 7.5,7.5000005 0 0 0 0.002,0 7.5,7.5000005 0 0 0 7.5,-7.5 7.5,7.5000005 0 0 0 -7.5,-7.5 7.5,7.5000005 0 0 0 -0.002,0 z" /></g></g><g
       id="g69"
       transform="translate(304.89258,-3.1767099)"
       style="display:inline"><g
         id="g65"><path
           id="path61"
           style="fill:#144cde;fill-opacity:1;stroke:none;stroke-width:6.06077;stroke-linecap:round;stroke-linejoin:round;stroke-miterlimit:5;stroke-dasharray:none;stroke-opacity:1"
           d="m 94.605469,225.89844 c -6.24857,0 -11.279297,5.03072 -11.279297,11.27929 0,6.24857 5.030727,11.2793 11.279297,11.2793 h 15.000001 0.002 c 6.24857,0 11.2793,-5.03073 11.2793,-11.2793 0,-6.24857 -5.03073,-11.27929 -11.2793,-11.27929 h -0.002 z" /><path
           id="path62"
           style="display:inline;fill:#be3f37;fill-opacity:1;stroke:none;stroke-width:5;stroke-linecap:round;stroke-linejoin:round;stroke-miterlimit:5;stroke-dasharray:none;stroke-opacity:1"
           d="m 92.107422,197.89648 c -6.24857,0 -11.279297,5.03073 -11.279297,11.2793 0,6.24857 5.030727,11.2793 11.279297,11.2793 h 19.999998 c 6.24857,0 11.2793,-5.03073 11.2793,-11.2793 0,-6.24857 -5.03073,-11.2793 -11.2793,-11.2793 z" /><path
           id="path65"
           style="fill:#0cbbaa;fill-opacity:1;stroke:none;stroke-width:6.06077;stroke-linecap:round;stroke-linejoin:round;stroke-miterlimit:5;stroke-dasharray:none;stroke-opacity:1"
           d="m 94.605469,169.89648 c -6.24857,0 -11.279297,5.03073 -11.279297,11.2793 0,6.24857 5.030727,11.2793 11.279297,11.2793 h 15.000001 0.002 c 6.24857,0 11.2793,-5.03073 11.2793,-11.2793 0,-6.24857 -5.03073,-11.2793 -11.2793,-11.2793 h -0.002 z" /></g><g
         id="g68"><path
           id="path66"
           style="fill:#000000;fill-opacity:1;stroke:none;stroke-width:6.06077;stroke-linecap:round;stroke-linejoin:round;stroke-miterlimit:5;stroke-dasharray:none;stroke-opacity:1"
           d="m 94.605919,229.67671 a 7.5,7.5 0 0 0 -7.5,7.5 7.5,7.5 0 0 0 7.5,7.5 h 15.000001 a 7.5,7.5000005 0 0 0 0.002,0 7.5,7.5000005 0 0 0 7.5,-7.5 7.5,7.5000005 0 0 0 -7.5,-7.5 7.5,7.5000005 0 0 0 -0.002,0 z" /><path
           id="path67"
           style="display:inline;fill:#000000;fill-opacity:1;stroke:none;stroke-width:6.06077;stroke-linecap:round;stroke-linejoin:round;stroke-miterlimit:5;stroke-dasharray:none;stroke-opacity:1"
           d="m 92.106919,201.67671 a 7.5,7.5 0 0 0 -7.5,7.5 7.5,7.5 0 0 0 7.5,7.5 h 20.000001 a 7.5,7.5000005 0 0 0 7.5,-7.5 7.5,7.5000005 0 0 0 -7.5,-7.5 z" /><path
           id="path68"
           style="fill:#000000;fill-opacity:1;stroke:none;stroke-width:6.06077;stroke-linecap:round;stroke-linejoin:round;stroke-miterlimit:5;stroke-dasharray:none;stroke-opacity:1"
           d="m 94.605919,173.67671 a 7.5,7.5 0 0 0 -7.5,7.5 7.5,7.5 0 0 0 7.5,7.5 h 15.000001 a 7.5,7.5000005 0 0 0 0.002,0 7.5,7.5000005 0 0 0 7.5,-7.5 7.5,7.5000005 0 0 0 -7.5,-7.5 7.5,7.5000005 0 0 0 -0.002,0 z" /></g></g><g
       id="g70"><path
         id="path58"
         style="fill:#000000;fill-opacity:1;stroke:none;stroke-width:4.56286;stroke-linecap:round;stroke-linejoin:round;stroke-miterlimit:5;stroke-dasharray:none;stroke-opacity:1"
         d="m 226,243.49999 a 12.5,12.5 0 0 0 -12.5,12.5 12.5,12.5 0 0 0 12.5,12.5 h 60 a 12.5,12.5 0 0 0 12.5,-12.5 12.5,12.5 0 0 0 -12.5,-12.5 z" /><rect
         style="fill:#ffffff;fill-opacity:1;stroke:#ffffff;stroke-width:3.6159;stroke-linecap:round;stroke-linejoin:round;stroke-miterlimit:5;stroke-dasharray:none;stroke-opacity:1"
         id="rect59"
         width="6.3841014"
         height="16.384102"
         x="232.80795"
         y="247.80794" /></g><g
       id="g71"
       transform="translate(0,-34.99999)"><path
         id="path70"
         style="fill:#000000;fill-opacity:1;stroke:none;stroke-width:4.56286;stroke-linecap:round;stroke-linejoin:round;stroke-miterlimit:5;stroke-dasharray:none;stroke-opacity:1"
         d="m 226,243.49999 a 12.5,12.5 0 0 0 -12.5,12.5 12.5,12.5 0 0 0 12.5,12.5 h 60 a 12.5,12.5 0 0 0 12.5,-12.5 12.5,12.5 0 0 0 -12.5,-12.5 z" /><circle
         style="display:inline;fill:#000000;fill-opacity:1;stroke:#ffffff;stroke-width:1;stroke-linecap:round;stroke-linejoin:round;stroke-miterlimit:5;stroke-dasharray:none;stroke-opacity:1"
         id="path71"
         cx="226"
         cy="255.99998"
         r="10" /><circle
         style="display:inline;fill:#000000;fill-opacity:1;stroke:#ffffff;stroke-width:1;stroke-linecap:round;stroke-linejoin:round;stroke-miterlimit:5;stroke-dasharray:none;stroke-opacity:1"
         id="circle71"
         cx="247.11905"
         cy="255.99998"
         r="7.1428576" /><circle
         style="display:inline;fill:#000000;fill-opacity:1;stroke:#ffffff;stroke-width:1;stroke-linecap:round;stroke-linejoin:round;stroke-miterlimit:5;stroke-dasharray:none;stroke-opacity:1"
         id="circle72"
         cx="265.38095"
         cy="255.99998"
         r="7.1428576" /><circle
         style="display:inline;fill:#000000;fill-opacity:1;stroke:#ffffff;stroke-width:1;stroke-linecap:round;stroke-linejoin:round;stroke-miterlimit:5;stroke-dasharray:none;stroke-opacity:1"
         id="circle73"
         cx="286"
         cy="255.99998"
         r="9.3457947" /><circle
         style="display:inline;fill:#000000;fill-opacity:1;stroke:#ffffff;stroke-width:1;stroke-linecap:round;stroke-linejoin:round;stroke-miterlimit:5;stroke-dasharray:none;stroke-opacity:1"
         id="circle74"
         cx="226"
         cy="221.99998"
         r="10" /><rect
         style="fill:#000000;fill-opacity:1;stroke:#ffffff;stroke-width:1.06239;stroke-linecap:round;stroke-linejoin:round;stroke-miterlimit:5;stroke-dasharray:none;stroke-opacity:1"
         id="rect74"
         width="3.3056986"
         height="8.9376106"
         x="284.34714"
         y="245.53117" /><text
         xml:space="preserve"
         style="font-size:21.3333px;line-height:1;font-family:Monospace;-inkscape-font-specification:'Monospace, Normal';text-align:center;text-anchor:middle;fill:#ffffff;fill-opacity:1;stroke:none;stroke-width:1;stroke-linecap:round;stroke-linejoin:round;stroke-miterlimit:5;stroke-dasharray:none;stroke-opacity:1"
         x="247.11905"
         y="261.75998"
         id="text74"><tspan
           id="tspan74"
           x="247.11905"
           y="261.75998">-</tspan></text><text
         xml:space="preserve"
         style="font-size:21.3333px;line-height:1;font-family:Monospace;-inkscape-font-specification:'Monospace, Normal';text-align:center;text-anchor:middle;fill:#ffffff;fill-opacity:1;stroke:none;stroke-width:1;stroke-linecap:round;stroke-linejoin:round;stroke-miterlimit:5;stroke-dasharray:none;stroke-opacity:1"
         x="265.38095"
         y="263.53064"
         id="text75"><tspan
           id="tspan75"
           x="265.38095"
           y="263.53064">+</tspan></text><text
         xml:space="preserve"
         style="font-size:21.3333px;line-height:1;font-family:Monospace;-inkscape-font-specification:'Monospace, Normal';text-align:center;text-anchor:middle;fill:#ffffff;fill-opacity:1;stroke:none;stroke-width:1;stroke-linecap:round;stroke-linejoin:round;stroke-miterlimit:5;stroke-dasharray:none;stroke-opacity:1"
         x="225.96001"
         y="260.6933"
         id="text76"><tspan
           id="tspan76"
           x="225.96001"
           y="260.6933"
           style="font-style:normal;font-variant:normal;font-weight:normal;font-stretch:normal;font-size:13.3333px;font-family:Sans;-inkscape-font-specification:'Sans, Normal';font-variant-ligatures:normal;font-variant-caps:normal;font-variant-numeric:normal;font-variant-east-asian:normal">EU</tspan></text><text
         xml:space="preserve"
         style="font-size:21.3333px;line-height:1;font-family:Monospace;-inkscape-font-specification:'Monospace, Normal';text-align:center;text-anchor:middle;fill:#000000;fill-opacity:1;stroke:none;stroke-width:1;stroke-linecap:round;stroke-linejoin:round;stroke-miterlimit:5;stroke-dasharray:none;stroke-opacity:1"
         x="279.42667"
         y="240.15419"
         id="text78"><tspan
           id="tspan78"
           x="279.42667"
           y="240.15419"
           style="font-style:normal;font-variant:normal;font-weight:normal;font-stretch:normal;font-size:13.3333px;font-family:Sans;-inkscape-font-specification:'Sans, Normal';font-variant-ligatures:normal;font-variant-caps:normal;font-variant-numeric:normal;font-variant-east-asian:normal;fill:#000000;fill-opacity:1">EFFECT</tspan></text><text
         xml:space="preserve"
         style="font-size:21.3333px;line-height:1;font-family:Monospace;-inkscape-font-specification:'Monospace, Normal';text-align:center;text-anchor:middle;fill:#000000;fill-opacity:1;stroke:none;stroke-width:1;stroke-linecap:round;stroke-linejoin:round;stroke-miterlimit:5;stroke-dasharray:none;stroke-opacity:1"
         x="226.83333"
         y="207.49998"
         id="text79"><tspan
           id="tspan79"
           x="226.83333"
           y="207.49998"
           style="font-style:normal;font-variant:normal;font-weight:normal;font-stretch:normal;font-size:13.3333px;font-family:Sans;-inkscape-font-specification:'Sans, Normal';font-variant-ligatures:normal;font-variant-caps:normal;font-variant-numeric:normal;font-variant-east-asian:normal;fill:#000000;fill-opacity:1">JS</tspan></text><text
         xml:space="preserve"
         style="font-size:21.3333px;line-height:1;font-family:Monospace;-inkscape-font-specification:'Monospace, Normal';text-align:center;text-anchor:middle;fill:#000000;fill-opacity:1;stroke:none;stroke-width:1;stroke-linecap:round;stroke-linejoin:round;stroke-miterlimit:5;stroke-dasharray:none;stroke-opacity:1"
         x="255.45334"
         y="316.49997"
         id="text80"><tspan
           id="tspan80"
           x="255.45334"
           y="316.49997"
           style="font-style:normal;font-variant:normal;font-weight:normal;font-stretch:normal;font-size:13.3333px;font-family:Sans;-inkscape-font-specification:'Sans, Normal';font-variant-ligatures:normal;font-variant-caps:normal;font-variant-numeric:normal;font-variant-east-asian:normal;fill:#000000;fill-opacity:1">FADER</tspan></text></g></g></svg>
