<svg xmlns="http://www.w3.org/2000/svg" xmlns:svg="http://www.w3.org/2000/svg" id="svg1" width="512" height="512" version="1.1" viewBox="0 0 512 512" xml:space="preserve"><defs id="defs1"><rect id="rect94" width="283.393" height="48.445" x="121.771" y="466.218"/><marker style="overflow:visible" id="marker57-9" markerHeight="2" markerWidth="2" orient="auto-start-reverse" preserveAspectRatio="xMidYMid" refX="0" refY="0" viewBox="0 0 1 1"><path style="fill:context-stroke;fill-rule:evenodd;stroke:context-stroke;stroke-width:.5pt" id="path57-0" d="M 2.885,0 -1.44,2.5 v -5 z"/></marker><marker style="overflow:visible" id="marker57-99" markerHeight="1" markerWidth="1" orient="auto-start-reverse" preserveAspectRatio="xMidYMid" refX="0" refY="0" viewBox="0 0 1 1"><path transform="scale(0.5)" style="fill:context-stroke;fill-rule:evenodd;stroke:context-stroke;stroke-width:1pt" id="path57-08" d="M 5.77,0 -2.88,5 V -5 Z"/></marker><marker style="overflow:visible" id="Triangle-1" markerHeight="1" markerWidth="1" orient="auto-start-reverse" preserveAspectRatio="xMidYMid" refX="0" refY="0" viewBox="0 0 1 1"><path transform="scale(0.5)" style="fill:context-stroke;fill-rule:evenodd;stroke:context-stroke;stroke-width:1pt" id="path135-3" d="M 5.77,0 -2.88,5 V -5 Z"/></marker><rect id="rect84-1" width="67.493" height="23.821" x="232.298" y="385.546"/><rect id="rect85-1" width="67.493" height="23.821" x="232.298" y="385.546"/><rect id="rect95" width="283.393" height="48.445" x="121.771" y="466.218"/><rect id="rect97" width="283.393" height="48.445" x="121.771" y="466.218"/><rect id="rect98" width="283.393" height="48.445" x="121.771" y="466.218"/></defs><g id="layer7" style="display:inline" transform="translate(0,-12)"><path id="path95" style="display:inline;fill:#fff" d="m 258.24805,21.892578 c -81.04016,0 -152.08383,45.330693 -187.308597,112.363282 l 0.470703,-0.69531 c -0.953112,1.11744 -0.03046,0.0479 -0.03125,0.0488 -1.143913,1.31286 -1.852856,2.86284 -2.328125,4.25977 -13.823002,27.62474 -21.632812,58.75476 -21.632812,91.82422 0,13.18703 1.295794,26.03852 3.65625,38.49609 l -0.04687,-0.3164 c 0.316527,3.08317 0.715683,5.75045 1.224609,7.70703 1.15745,4.44981 2.919775,11.91742 3.917969,16.5957 1.034398,4.84795 2.770346,10.68023 4.091797,13.21875 0.937724,1.80138 3.415943,7.50789 5.412109,12.52539 2.062354,5.18387 4.991254,11.08839 6.947266,13.44141 1.10072,1.32414 1.826172,2.73046 1.826172,2.73047 0.02684,2.76517 5.397324,10.06468 11.054687,17.35547 l 11.412109,16.33007 -0.002,42.85157 c -0.002,31.54322 0.313135,45.92055 3.556641,49.16406 4.39742,4.39742 39.88974,4.45205 47.19336,2.15039 0.62543,-0.1971 1.80514,-0.7594 2.69726,-1.73828 0.0416,-0.0108 0.0784,-0.0218 0.125,-0.0332 0.0972,-0.0237 0.20389,-0.0474 0.32032,-0.0723 0.12936,-0.0276 0.26913,-0.056 0.41992,-0.084 2.48602,-0.46113 6.55329,-0.75 11.79297,-0.75 21.87292,0 27.2793,-4.27571 27.27929,-23.99414 0,-6.26389 0.2321,-8.06398 0.57422,-8.7207 21.20711,7.05646 43.85445,10.94336 67.37696,10.94336 21.18199,0 41.67199,-3.13076 61.0332,-8.90039 l 4.46484,0.01 v 7.81835 c 0,19.33867 4.72347,22.84375 26.57422,22.84375 5.52606,0 9.80815,0.2885 12.41406,0.75196 0.15922,0.0283 0.30624,0.0559 0.44336,0.084 0.12342,0.0253 0.23623,0.0519 0.33985,0.0762 0.0933,0.0219 0.17852,0.0424 0.2539,0.0625 0.0679,0.0181 0.12616,0.0352 0.17774,0.0508 0.0208,0.006 0.0351,0.01 0.0527,0.0156 3.41523,2.99352 12.85973,3.04492 22.64063,3.04492 15.80731,0 22.45838,-0.6029 26.17383,-4.31836 4.07114,-4.07113 4.31836,-12.47461 4.31836,-48.65234 v -41.52149 l 12.60351,-17.03906 0.01,-0.0117 c 10.38916,-14.27419 18.3743,-29.06604 24.48828,-45.4375 9.53567,-23.68148 14.84375,-49.51254 14.84375,-76.67773 0,-115.73387 -95.27244,-207.800782 -210.83203,-207.800782 z"/><path id="path80" style="display:inline;fill:#000" d="m 258.24805,25.671875 c -79.6252,0 -149.38766,44.545259 -183.962894,110.341795 -0.0087,0.0102 -0.04827,0.0685 -0.05664,0.0781 -0.851949,0.97777 -1.449322,2.28824 -1.796875,3.46875 -13.565553,27.11024 -21.234375,57.66778 -21.234375,90.13281 0,12.93858 1.270969,25.55485 3.589843,37.79297 0.308691,3.00685 0.682959,5.45065 1.123047,7.14258 1.169424,4.49585 2.949713,12.03676 3.957032,16.75781 1.007319,4.72104 2.693138,10.23898 3.746093,12.26172 1.052956,2.02274 3.560051,7.81716 5.572266,12.875 2.012216,5.05784 4.866735,10.64742 6.341797,12.42187 1.475061,1.77446 2.689169,4.07392 2.699218,5.10938 0.01005,1.03547 4.658488,7.86024 10.330079,15.16601 l 12.136719,17.36914 -0.002,44.03907 c -0.002,31.53025 0.69347,44.73644 2.44921,46.49218 3.06753,3.06753 44.55079,3.44759 44.55079,0.40821 0,-1.18073 6.47069,-2.04297 15.32617,-2.04297 20.02968,0 23.5,-2.98654 23.5,-20.21485 0,-9.89005 0.53271,-11.79703 3.79687,-12.86718 21.32932,7.30373 44.18412,11.31054 67.9336,11.31054 21.02818,0 41.3671,-3.11916 60.55859,-8.90039 l 8.71875,0.0176 v 11.58985 c 0,16.77041 2.74143,19.06445 22.79492,19.06445 9.32552,0 16.03321,0.85425 16.03321,2.04297 0,1.22517 8.12493,2.04297 20.28906,2.04297 15.72046,0 21.01382,-0.7228 23.50195,-3.21094 2.71481,-2.7148 3.21094,-9.82428 3.21094,-45.98047 v -42.76953 l 13.33594,-18.02735 c 10.19699,-14.01016 18.02724,-28.51813 24.01953,-44.57421 9.37127,-23.25558 14.58984,-48.63238 14.58984,-75.31641 0,-113.59386 -93.56332,-204.021485 -207.05273,-204.021485 z"/><path style="display:inline;fill:#fff;fill-opacity:1;stroke:none;stroke-width:1.12286;stroke-linecap:round;stroke-linejoin:round;stroke-miterlimit:5;stroke-dasharray:none;stroke-opacity:1" id="path85" d="m 256,41.941406 c -101.48958,0 -185.517578,74.744104 -185.517578,169.072264 0,94.32816 84.027758,169.07422 185.517578,169.07422 101.48982,0 185.51758,-74.74606 185.51758,-169.07422 0,-94.32816 -84.028,-169.072264 -185.51758,-169.072264 z"/><path id="path89" style="display:inline;fill:#6ec7c9;fill-opacity:1;stroke:none;stroke-width:1.12286;stroke-linecap:round;stroke-linejoin:round;stroke-miterlimit:5;stroke-dasharray:none;stroke-opacity:1" d="M 281,378.51172 C 370.91967,367.4259 441.51758,297.46693 441.51758,211.01367 441.51758,124.56041 370.91952,54.603126 281,43.517578 Z"/><path id="path92" style="display:inline;fill:#6ec7c9;fill-opacity:1;stroke:none;stroke-width:1.12286;stroke-linecap:round;stroke-linejoin:round;stroke-miterlimit:5;stroke-dasharray:none;stroke-opacity:1" d="M 231,43.517578 C 141.08048,54.603126 70.482422,124.56041 70.482422,211.01367 70.482422,297.46693 141.08033,367.4259 231,378.51172 Z"/><path id="path91" style="display:none;fill:#6ec7c9;fill-opacity:1;stroke:none;stroke-width:1.12286;stroke-linecap:round;stroke-linejoin:round;stroke-miterlimit:5;stroke-dasharray:none;stroke-opacity:1" d="M 231,43.517578 V 378.51172 c 8.19055,1.00978 16.52732,1.57617 25,1.57617 8.47268,0 16.80945,-0.56639 25,-1.57617 V 43.517578 c -8.19054,-1.009754 -16.52734,-1.576172 -25,-1.576172 -8.47266,0 -16.80946,0.566418 -25,1.576172 z"/><path style="display:inline;fill:#000;fill-opacity:1;stroke:none;stroke-width:1.12286;stroke-linecap:round;stroke-linejoin:round;stroke-miterlimit:5;stroke-dasharray:none;stroke-opacity:1" id="path81" d="m 256,49.5 c -97.74549,0 -177.958984,71.78323 -177.958984,161.51367 0,89.73044 80.213364,161.51563 177.958984,161.51563 97.74562,0 177.95898,-71.78519 177.95898,-161.51563 C 433.95898,121.28323 353.74549,49.5 256,49.5 Z"/><ellipse style="display:inline;fill:#fff;fill-opacity:1;stroke:none;stroke-width:1.12286;stroke-linecap:round;stroke-linejoin:round;stroke-miterlimit:5;stroke-dasharray:none;stroke-opacity:1" id="ellipse82" cx="256" cy="211.014" rx="168.51" ry="152.066"/><path id="ellipse88" style="display:inline;fill:#fc4827;fill-opacity:1;stroke:none;stroke-width:.969921;stroke-linecap:round;stroke-linejoin:round;stroke-miterlimit:5;stroke-dasharray:none;stroke-opacity:1" d="M 281,341.332 A 145.02623,131.83626 0 0 0 404.51,211.01047 145.02623,131.83626 0 0 0 281,80.65 Z"/><path id="path94" style="display:inline;fill:#fc4827;fill-opacity:1;stroke:none;stroke-width:.969917;stroke-linecap:round;stroke-linejoin:round;stroke-miterlimit:5;stroke-dasharray:none;stroke-opacity:1" d="M 231,80.695 A 145.02624,131.83319 0 0 0 107.49,211.0135 145.02624,131.83319 0 0 0 231,341.332 Z"/><text id="text94" transform="translate(-112.72656,-0.0704815)" xml:space="preserve" style="font-style:normal;font-variant:normal;font-weight:400;font-stretch:normal;font-size:13.3333px;line-height:1;font-family:Sans;-inkscape-font-specification:'Sans, Normal';font-variant-ligatures:normal;font-variant-caps:normal;font-variant-numeric:normal;font-variant-east-asian:normal;text-align:center;white-space:pre;shape-inside:url(#rect94);fill:#fff;fill-opacity:1;stroke:#fff;stroke-width:5;stroke-linecap:round;stroke-linejoin:round;stroke-miterlimit:5;stroke-dasharray:none;stroke-opacity:1"><tspan id="tspan2" x="202.908" y="508.079"><tspan style="font-size:53.3333px" id="tspan1">DON</tspan></tspan></text><text id="text95" transform="translate(95.497678,-0.01675763)" xml:space="preserve" style="font-style:normal;font-variant:normal;font-weight:400;font-stretch:normal;font-size:13.3333px;line-height:1;font-family:Sans;-inkscape-font-specification:'Sans, Normal';font-variant-ligatures:normal;font-variant-caps:normal;font-variant-numeric:normal;font-variant-east-asian:normal;text-align:center;white-space:pre;shape-inside:url(#rect95);fill:#fff;fill-opacity:1;stroke:#fff;stroke-width:5;stroke-linecap:round;stroke-linejoin:round;stroke-miterlimit:5;stroke-dasharray:none;stroke-opacity:1"><tspan id="tspan4" x="216.961" y="508.079"><tspan style="font-size:53.3333px" id="tspan3">KAT</tspan></tspan></text><text id="text96" transform="translate(-112.72656,-0.0704815)" xml:space="preserve" style="font-style:normal;font-variant:normal;font-weight:400;font-stretch:normal;font-size:13.3333px;line-height:1;font-family:Sans;-inkscape-font-specification:'Sans, Normal';font-variant-ligatures:normal;font-variant-caps:normal;font-variant-numeric:normal;font-variant-east-asian:normal;text-align:center;white-space:pre;shape-inside:url(#rect97);fill:#fc4827;fill-opacity:1;stroke:none;stroke-width:1;stroke-linecap:round;stroke-linejoin:round;stroke-miterlimit:5;stroke-dasharray:none;stroke-opacity:1"><tspan id="tspan6" x="202.908" y="508.079"><tspan style="font-size:53.3333px" id="tspan5">DON</tspan></tspan></text><text id="text97" transform="translate(95.497678,-0.01675763)" xml:space="preserve" style="font-style:normal;font-variant:normal;font-weight:400;font-stretch:normal;font-size:13.3333px;line-height:1;font-family:Sans;-inkscape-font-specification:'Sans, Normal';font-variant-ligatures:normal;font-variant-caps:normal;font-variant-numeric:normal;font-variant-east-asian:normal;text-align:center;white-space:pre;shape-inside:url(#rect98);display:inline;fill:#6ec7c9;fill-opacity:1;stroke:none;stroke-width:1;stroke-linecap:round;stroke-linejoin:round;stroke-miterlimit:5;stroke-dasharray:none;stroke-opacity:1"><tspan id="tspan8" x="216.961" y="508.079"><tspan style="font-size:53.3333px" id="tspan7">KAT</tspan></tspan></text></g></svg>