<svg xmlns="http://www.w3.org/2000/svg" xmlns:svg="http://www.w3.org/2000/svg" id="svg1" width="512" height="512" version="1.1" viewBox="0 0 512 512" xml:space="preserve"><defs id="defs1"><rect id="rect94" width="283.393" height="48.445" x="121.771" y="466.218"/><marker style="overflow:visible" id="marker57-9" markerHeight="2" markerWidth="2" orient="auto-start-reverse" preserveAspectRatio="xMidYMid" refX="0" refY="0" viewBox="0 0 1 1"><path style="fill:context-stroke;fill-rule:evenodd;stroke:context-stroke;stroke-width:.5pt" id="path57-0" d="M 2.885,0 -1.44,2.5 v -5 z"/></marker><marker style="overflow:visible" id="marker57-99" markerHeight="1" markerWidth="1" orient="auto-start-reverse" preserveAspectRatio="xMidYMid" refX="0" refY="0" viewBox="0 0 1 1"><path transform="scale(0.5)" style="fill:context-stroke;fill-rule:evenodd;stroke:context-stroke;stroke-width:1pt" id="path57-08" d="M 5.77,0 -2.88,5 V -5 Z"/></marker><marker style="overflow:visible" id="Triangle-1" markerHeight="1" markerWidth="1" orient="auto-start-reverse" preserveAspectRatio="xMidYMid" refX="0" refY="0" viewBox="0 0 1 1"><path transform="scale(0.5)" style="fill:context-stroke;fill-rule:evenodd;stroke:context-stroke;stroke-width:1pt" id="path135-3" d="M 5.77,0 -2.88,5 V -5 Z"/></marker><rect id="rect84-1" width="67.493" height="23.821" x="232.298" y="385.546"/><rect id="rect85-1" width="67.493" height="23.821" x="232.298" y="385.546"/><rect id="rect95" width="283.393" height="48.445" x="121.771" y="466.218"/><rect id="rect97" width="283.393" height="48.445" x="121.771" y="466.218"/><rect id="rect98" width="283.393" height="48.445" x="121.771" y="466.218"/></defs><g id="layer6" style="display:inline"><g id="g4" style="fill:#fff;fill-opacity:1;stroke:#fefefe;stroke-width:1;stroke-dasharray:none;stroke-opacity:1"><path style="fill:#fff;fill-opacity:1;stroke:#fefefe;stroke-width:1;stroke-linecap:round;stroke-linejoin:round;stroke-miterlimit:5;stroke-dasharray:none;stroke-opacity:1" id="rect1" width="199.38" height="198.007" x="5.31" y="156.997" d="M 1.1523437,152.83789 V 359.16211 H 208.84766 V 152.83789 Z"/><path style="fill:#fff;fill-opacity:1;stroke:#fefefe;stroke-width:1;stroke-linecap:round;stroke-linejoin:round;stroke-miterlimit:5;stroke-dasharray:none;stroke-opacity:1" id="rect2" width="199.38" height="198.007" x="307.31" y="156.997" d="M 303.15234,152.83789 V 359.16211 H 510.84766 V 152.83789 Z"/><path style="fill:#fff;fill-opacity:1;stroke:#fefefe;stroke-width:1;stroke-linecap:round;stroke-linejoin:round;stroke-miterlimit:5;stroke-dasharray:none;stroke-opacity:1" id="rect3" width="99.17" height="198.01" x="206.415" y="156.995" d="M 202.25586,152.83789 V 359.16211 H 309.74414 V 152.83789 Z"/></g><g id="g6" style="fill:#fff;fill-opacity:1;stroke-width:5;stroke-dasharray:none"><rect style="fill:#fff;fill-opacity:1;stroke:#000;stroke-width:5;stroke-linecap:round;stroke-linejoin:round;stroke-miterlimit:5;stroke-dasharray:none" id="rect4" width="199.38" height="198.007" x="5.31" y="156.997"/><circle style="fill:#000;fill-opacity:1;stroke:none;stroke-width:5;stroke-linecap:round;stroke-linejoin:round;stroke-miterlimit:5;stroke-dasharray:none;stroke-opacity:1" id="path14" cx="105" cy="256" r="93.916"/><circle style="display:inline;fill:#000;fill-opacity:.000338326;stroke:#fff;stroke-width:1;stroke-linecap:round;stroke-linejoin:round;stroke-miterlimit:5;stroke-dasharray:none;stroke-opacity:1" id="circle59" cx="105" cy="256" r="36"/><circle style="display:inline;fill:#000;fill-opacity:.000338326;stroke:#fff;stroke-width:1;stroke-linecap:round;stroke-linejoin:round;stroke-miterlimit:5;stroke-dasharray:none;stroke-opacity:1" id="path59" cx="105" cy="256" r="64"/><rect style="fill:#fff;fill-opacity:1;stroke:#000;stroke-width:5;stroke-linecap:round;stroke-linejoin:round;stroke-miterlimit:5;stroke-dasharray:none" id="rect5" width="199.38" height="198.007" x="307.31" y="156.997"/><circle style="fill:#000;fill-opacity:1;stroke:none;stroke-width:5;stroke-linecap:round;stroke-linejoin:round;stroke-miterlimit:5;stroke-dasharray:none;stroke-opacity:1;marker-mid:url(#marker57-9)" id="circle14" cx="407" cy="256" r="93.916"/><circle style="display:inline;fill:#000;fill-opacity:.000338326;stroke:#fff;stroke-width:1;stroke-linecap:round;stroke-linejoin:round;stroke-miterlimit:5;stroke-dasharray:none;stroke-opacity:1" id="circle60" cx="407" cy="256" r="36"/><circle style="display:inline;fill:#000;fill-opacity:.000338326;stroke:#fff;stroke-width:1;stroke-linecap:round;stroke-linejoin:round;stroke-miterlimit:5;stroke-dasharray:none;stroke-opacity:1" id="circle61" cx="407" cy="256" r="64"/><rect style="display:inline;fill:#fff;fill-opacity:1;stroke:#000;stroke-width:5;stroke-linecap:round;stroke-linejoin:round;stroke-miterlimit:5;stroke-dasharray:none" id="rect6" width="99.17" height="198.01" x="206.415" y="156.995"/></g><g id="g33" transform="translate(2.8930805,-3.1767099)"><g id="g30"><path id="circle21" style="fill:#144cde;fill-opacity:1;stroke:none;stroke-width:6.06077;stroke-linecap:round;stroke-linejoin:round;stroke-miterlimit:5;stroke-dasharray:none;stroke-opacity:1" d="m 94.605469,225.89844 c -6.24857,0 -11.279297,5.03072 -11.279297,11.27929 0,6.24857 5.030727,11.2793 11.279297,11.2793 h 15.000001 0.002 c 6.24857,0 11.2793,-5.03073 11.2793,-11.2793 0,-6.24857 -5.03073,-11.27929 -11.2793,-11.27929 h -0.002 z"/><path id="path15" style="display:inline;fill:#be3f37;fill-opacity:1;stroke:none;stroke-width:5;stroke-linecap:round;stroke-linejoin:round;stroke-miterlimit:5;stroke-dasharray:none;stroke-opacity:1" d="m 92.107422,197.89648 c -6.24857,0 -11.279297,5.03073 -11.279297,11.2793 0,6.24857 5.030727,11.2793 11.279297,11.2793 h 19.999998 c 6.24857,0 11.2793,-5.03073 11.2793,-11.2793 0,-6.24857 -5.03073,-11.2793 -11.2793,-11.2793 z"/><path id="path24" style="fill:#0cbbaa;fill-opacity:1;stroke:none;stroke-width:6.06077;stroke-linecap:round;stroke-linejoin:round;stroke-miterlimit:5;stroke-dasharray:none;stroke-opacity:1" d="m 94.605469,169.89648 c -6.24857,0 -11.279297,5.03073 -11.279297,11.2793 0,6.24857 5.030727,11.2793 11.279297,11.2793 h 15.000001 0.002 c 6.24857,0 11.2793,-5.03073 11.2793,-11.2793 0,-6.24857 -5.03073,-11.2793 -11.2793,-11.2793 h -0.002 z"/></g><g id="g29"><path id="path28" style="fill:#000;fill-opacity:1;stroke:none;stroke-width:6.06077;stroke-linecap:round;stroke-linejoin:round;stroke-miterlimit:5;stroke-dasharray:none;stroke-opacity:1" d="m 94.605919,229.67671 a 7.5,7.5 0 0 0 -7.5,7.5 7.5,7.5 0 0 0 7.5,7.5 h 15.000001 a 7.5,7.5000005 0 0 0 0.002,0 7.5,7.5000005 0 0 0 7.5,-7.5 7.5,7.5000005 0 0 0 -7.5,-7.5 7.5,7.5000005 0 0 0 -0.002,0 z"/><path id="path27" style="display:inline;fill:#000;fill-opacity:1;stroke:none;stroke-width:6.06077;stroke-linecap:round;stroke-linejoin:round;stroke-miterlimit:5;stroke-dasharray:none;stroke-opacity:1" d="m 92.106919,201.67671 a 7.5,7.5 0 0 0 -7.5,7.5 7.5,7.5 0 0 0 7.5,7.5 h 20.000001 a 7.5,7.5000005 0 0 0 7.5,-7.5 7.5,7.5000005 0 0 0 -7.5,-7.5 z"/><path id="path29" style="fill:#000;fill-opacity:1;stroke:none;stroke-width:6.06077;stroke-linecap:round;stroke-linejoin:round;stroke-miterlimit:5;stroke-dasharray:none;stroke-opacity:1" d="m 94.605919,173.67671 a 7.5,7.5 0 0 0 -7.5,7.5 7.5,7.5 0 0 0 7.5,7.5 h 15.000001 a 7.5,7.5000005 0 0 0 0.002,0 7.5,7.5000005 0 0 0 7.5,-7.5 7.5,7.5000005 0 0 0 -7.5,-7.5 7.5,7.5000005 0 0 0 -0.002,0 z"/></g></g><g id="g69" transform="translate(304.89258,-3.1767099)" style="display:inline"><g id="g65"><path id="path61" style="fill:#144cde;fill-opacity:1;stroke:none;stroke-width:6.06077;stroke-linecap:round;stroke-linejoin:round;stroke-miterlimit:5;stroke-dasharray:none;stroke-opacity:1" d="m 94.605469,225.89844 c -6.24857,0 -11.279297,5.03072 -11.279297,11.27929 0,6.24857 5.030727,11.2793 11.279297,11.2793 h 15.000001 0.002 c 6.24857,0 11.2793,-5.03073 11.2793,-11.2793 0,-6.24857 -5.03073,-11.27929 -11.2793,-11.27929 h -0.002 z"/><path id="path62" style="display:inline;fill:#be3f37;fill-opacity:1;stroke:none;stroke-width:5;stroke-linecap:round;stroke-linejoin:round;stroke-miterlimit:5;stroke-dasharray:none;stroke-opacity:1" d="m 92.107422,197.89648 c -6.24857,0 -11.279297,5.03073 -11.279297,11.2793 0,6.24857 5.030727,11.2793 11.279297,11.2793 h 19.999998 c 6.24857,0 11.2793,-5.03073 11.2793,-11.2793 0,-6.24857 -5.03073,-11.2793 -11.2793,-11.2793 z"/><path id="path65" style="fill:#0cbbaa;fill-opacity:1;stroke:none;stroke-width:6.06077;stroke-linecap:round;stroke-linejoin:round;stroke-miterlimit:5;stroke-dasharray:none;stroke-opacity:1" d="m 94.605469,169.89648 c -6.24857,0 -11.279297,5.03073 -11.279297,11.2793 0,6.24857 5.030727,11.2793 11.279297,11.2793 h 15.000001 0.002 c 6.24857,0 11.2793,-5.03073 11.2793,-11.2793 0,-6.24857 -5.03073,-11.2793 -11.2793,-11.2793 h -0.002 z"/></g><g id="g68"><path id="path66" style="fill:#000;fill-opacity:1;stroke:none;stroke-width:6.06077;stroke-linecap:round;stroke-linejoin:round;stroke-miterlimit:5;stroke-dasharray:none;stroke-opacity:1" d="m 94.605919,229.67671 a 7.5,7.5 0 0 0 -7.5,7.5 7.5,7.5 0 0 0 7.5,7.5 h 15.000001 a 7.5,7.5000005 0 0 0 0.002,0 7.5,7.5000005 0 0 0 7.5,-7.5 7.5,7.5000005 0 0 0 -7.5,-7.5 7.5,7.5000005 0 0 0 -0.002,0 z"/><path id="path67" style="display:inline;fill:#000;fill-opacity:1;stroke:none;stroke-width:6.06077;stroke-linecap:round;stroke-linejoin:round;stroke-miterlimit:5;stroke-dasharray:none;stroke-opacity:1" d="m 92.106919,201.67671 a 7.5,7.5 0 0 0 -7.5,7.5 7.5,7.5 0 0 0 7.5,7.5 h 20.000001 a 7.5,7.5000005 0 0 0 7.5,-7.5 7.5,7.5000005 0 0 0 -7.5,-7.5 z"/><path id="path68" style="fill:#000;fill-opacity:1;stroke:none;stroke-width:6.06077;stroke-linecap:round;stroke-linejoin:round;stroke-miterlimit:5;stroke-dasharray:none;stroke-opacity:1" d="m 94.605919,173.67671 a 7.5,7.5 0 0 0 -7.5,7.5 7.5,7.5 0 0 0 7.5,7.5 h 15.000001 a 7.5,7.5000005 0 0 0 0.002,0 7.5,7.5000005 0 0 0 7.5,-7.5 7.5,7.5000005 0 0 0 -7.5,-7.5 7.5,7.5000005 0 0 0 -0.002,0 z"/></g></g><g id="g70"><path id="path58" style="fill:#000;fill-opacity:1;stroke:none;stroke-width:4.56286;stroke-linecap:round;stroke-linejoin:round;stroke-miterlimit:5;stroke-dasharray:none;stroke-opacity:1" d="m 226,243.49999 a 12.5,12.5 0 0 0 -12.5,12.5 12.5,12.5 0 0 0 12.5,12.5 h 60 a 12.5,12.5 0 0 0 12.5,-12.5 12.5,12.5 0 0 0 -12.5,-12.5 z"/><rect style="fill:#fff;fill-opacity:1;stroke:#fff;stroke-width:3.6159;stroke-linecap:round;stroke-linejoin:round;stroke-miterlimit:5;stroke-dasharray:none;stroke-opacity:1" id="rect59" width="6.384" height="16.384" x="232.808" y="247.808"/></g><g id="g71" transform="translate(0,-34.99999)"><path id="path70" style="fill:#000;fill-opacity:1;stroke:none;stroke-width:4.56286;stroke-linecap:round;stroke-linejoin:round;stroke-miterlimit:5;stroke-dasharray:none;stroke-opacity:1" d="m 226,243.49999 a 12.5,12.5 0 0 0 -12.5,12.5 12.5,12.5 0 0 0 12.5,12.5 h 60 a 12.5,12.5 0 0 0 12.5,-12.5 12.5,12.5 0 0 0 -12.5,-12.5 z"/><circle style="display:inline;fill:#000;fill-opacity:1;stroke:#fff;stroke-width:1;stroke-linecap:round;stroke-linejoin:round;stroke-miterlimit:5;stroke-dasharray:none;stroke-opacity:1" id="path71" cx="226" cy="256" r="10"/><circle style="display:inline;fill:#000;fill-opacity:1;stroke:#fff;stroke-width:1;stroke-linecap:round;stroke-linejoin:round;stroke-miterlimit:5;stroke-dasharray:none;stroke-opacity:1" id="circle71" cx="247.119" cy="256" r="7.143"/><circle style="display:inline;fill:#000;fill-opacity:1;stroke:#fff;stroke-width:1;stroke-linecap:round;stroke-linejoin:round;stroke-miterlimit:5;stroke-dasharray:none;stroke-opacity:1" id="circle72" cx="265.381" cy="256" r="7.143"/><circle style="display:inline;fill:#000;fill-opacity:1;stroke:#fff;stroke-width:1;stroke-linecap:round;stroke-linejoin:round;stroke-miterlimit:5;stroke-dasharray:none;stroke-opacity:1" id="circle73" cx="286" cy="256" r="9.346"/><circle style="display:inline;fill:#000;fill-opacity:1;stroke:#fff;stroke-width:1;stroke-linecap:round;stroke-linejoin:round;stroke-miterlimit:5;stroke-dasharray:none;stroke-opacity:1" id="circle74" cx="226" cy="222" r="10"/><rect style="fill:#000;fill-opacity:1;stroke:#fff;stroke-width:1.06239;stroke-linecap:round;stroke-linejoin:round;stroke-miterlimit:5;stroke-dasharray:none;stroke-opacity:1" id="rect74" width="3.306" height="8.938" x="284.347" y="245.531"/><text xml:space="preserve" style="font-size:21.3333px;line-height:1;font-family:Monospace;-inkscape-font-specification:'Monospace, Normal';text-align:center;text-anchor:middle;fill:#fff;fill-opacity:1;stroke:none;stroke-width:1;stroke-linecap:round;stroke-linejoin:round;stroke-miterlimit:5;stroke-dasharray:none;stroke-opacity:1" id="text74" x="247.119" y="261.76"><tspan id="tspan74" x="247.119" y="261.76">-</tspan></text><text xml:space="preserve" style="font-size:21.3333px;line-height:1;font-family:Monospace;-inkscape-font-specification:'Monospace, Normal';text-align:center;text-anchor:middle;fill:#fff;fill-opacity:1;stroke:none;stroke-width:1;stroke-linecap:round;stroke-linejoin:round;stroke-miterlimit:5;stroke-dasharray:none;stroke-opacity:1" id="text75" x="265.381" y="263.531"><tspan id="tspan75" x="265.381" y="263.531">+</tspan></text><text xml:space="preserve" style="font-size:21.3333px;line-height:1;font-family:Monospace;-inkscape-font-specification:'Monospace, Normal';text-align:center;text-anchor:middle;fill:#fff;fill-opacity:1;stroke:none;stroke-width:1;stroke-linecap:round;stroke-linejoin:round;stroke-miterlimit:5;stroke-dasharray:none;stroke-opacity:1" id="text76" x="225.96" y="260.693"><tspan id="tspan76" x="225.96" y="260.693" style="font-style:normal;font-variant:normal;font-weight:400;font-stretch:normal;font-size:13.3333px;font-family:Sans;-inkscape-font-specification:'Sans, Normal';font-variant-ligatures:normal;font-variant-caps:normal;font-variant-numeric:normal;font-variant-east-asian:normal">EU</tspan></text><text xml:space="preserve" style="font-size:21.3333px;line-height:1;font-family:Monospace;-inkscape-font-specification:'Monospace, Normal';text-align:center;text-anchor:middle;fill:#000;fill-opacity:1;stroke:none;stroke-width:1;stroke-linecap:round;stroke-linejoin:round;stroke-miterlimit:5;stroke-dasharray:none;stroke-opacity:1" id="text78" x="279.427" y="240.154"><tspan id="tspan78" x="279.427" y="240.154" style="font-style:normal;font-variant:normal;font-weight:400;font-stretch:normal;font-size:13.3333px;font-family:Sans;-inkscape-font-specification:'Sans, Normal';font-variant-ligatures:normal;font-variant-caps:normal;font-variant-numeric:normal;font-variant-east-asian:normal;fill:#000;fill-opacity:1">EFFECT</tspan></text><text xml:space="preserve" style="font-size:21.3333px;line-height:1;font-family:Monospace;-inkscape-font-specification:'Monospace, Normal';text-align:center;text-anchor:middle;fill:#000;fill-opacity:1;stroke:none;stroke-width:1;stroke-linecap:round;stroke-linejoin:round;stroke-miterlimit:5;stroke-dasharray:none;stroke-opacity:1" id="text79" x="226.833" y="207.5"><tspan id="tspan79" x="226.833" y="207.5" style="font-style:normal;font-variant:normal;font-weight:400;font-stretch:normal;font-size:13.3333px;font-family:Sans;-inkscape-font-specification:'Sans, Normal';font-variant-ligatures:normal;font-variant-caps:normal;font-variant-numeric:normal;font-variant-east-asian:normal;fill:#000;fill-opacity:1">JS</tspan></text><text xml:space="preserve" style="font-size:21.3333px;line-height:1;font-family:Monospace;-inkscape-font-specification:'Monospace, Normal';text-align:center;text-anchor:middle;fill:#000;fill-opacity:1;stroke:none;stroke-width:1;stroke-linecap:round;stroke-linejoin:round;stroke-miterlimit:5;stroke-dasharray:none;stroke-opacity:1" id="text80" x="255.453" y="316.5"><tspan id="tspan80" x="255.453" y="316.5" style="font-style:normal;font-variant:normal;font-weight:400;font-stretch:normal;font-size:13.3333px;font-family:Sans;-inkscape-font-specification:'Sans, Normal';font-variant-ligatures:normal;font-variant-caps:normal;font-variant-numeric:normal;font-variant-east-asian:normal;fill:#000;fill-opacity:1">FADER</tspan></text></g></g></svg>